<svg xmlns="http://www.w3.org/2000/svg" xmlns:xlink="http://www.w3.org/1999/xlink" width="346" zoomAndPan="magnify" viewBox="0 0 259.5 239.999995" height="320" preserveAspectRatio="xMidYMid meet" version="1.0"><defs><clipPath id="c8dc45c8d0"><path d="M 95.628906 36 L 172 36 L 172 112 L 95.628906 112 Z M 95.628906 36 " clip-rule="nonzero"/></clipPath><clipPath id="d3424e85b6"><path d="M 139 0.230469 L 246 0.230469 L 246 149.941406 L 139 149.941406 Z M 139 0.230469 " clip-rule="nonzero"/></clipPath><clipPath id="b8fb603709"><path d="M 92 148 L 172.167969 148 L 172.167969 229 L 92 229 Z M 92 148 " clip-rule="nonzero"/></clipPath><clipPath id="61b7e50cca"><path d="M 3 116 L 151 116 L 151 239.40625 L 3 239.40625 Z M 3 116 " clip-rule="nonzero"/></clipPath><clipPath id="e7b03720ab"><path d="M 181.5625 162.808594 L 221 162.808594 L 221 239.769531 L 181.5625 239.769531 Z M 181.5625 162.808594 " clip-rule="nonzero"/></clipPath><clipPath id="1fed14e67a"><path d="M 246 164 L 258.664062 164 L 258.664062 177 L 246 177 Z M 246 164 " clip-rule="nonzero"/></clipPath></defs><g clip-path="url(#c8dc45c8d0)"><path fill="#1e4064" d="M 171.414062 74.085938 C 171.414062 53.191406 154.414062 36.195312 133.523438 36.195312 C 112.628906 36.195312 95.628906 53.191406 95.628906 74.085938 C 95.628906 94.976562 112.628906 111.976562 133.523438 111.976562 C 154.414062 111.976562 171.414062 94.976562 171.414062 74.085938 Z M 123.4375 91.734375 C 113.707031 91.734375 105.792969 83.816406 105.792969 74.085938 C 105.792969 64.355469 113.707031 56.441406 123.4375 56.441406 C 133.167969 56.441406 141.085938 64.355469 141.085938 74.085938 C 141.085938 83.816406 133.167969 91.734375 123.4375 91.734375 Z M 146.125 94.253906 C 144.734375 94.253906 143.605469 93.125 143.605469 91.734375 C 143.605469 90.339844 144.734375 89.210938 146.125 89.210938 C 150.296875 89.210938 153.6875 85.816406 153.6875 81.648438 C 153.6875 80.257812 152.558594 79.128906 151.167969 79.128906 C 149.777344 79.128906 148.648438 80.257812 148.648438 81.648438 C 148.648438 83.042969 147.519531 84.171875 146.125 84.171875 C 144.734375 84.171875 143.605469 83.042969 143.605469 81.648438 C 143.605469 77.480469 146.996094 74.085938 151.167969 74.085938 C 155.335938 74.085938 158.730469 77.480469 158.730469 81.648438 C 158.730469 84.484375 157.789062 87.105469 156.203125 89.210938 L 158.730469 89.210938 C 160.121094 89.210938 161.25 90.339844 161.25 91.734375 C 161.25 93.125 160.125 94.253906 158.730469 94.253906 Z M 146.125 94.253906 " fill-opacity="1" fill-rule="nonzero"/></g><path fill="#1e4064" d="M 128.261719 62.441406 C 129.027344 62.757812 129.753906 63.144531 130.441406 63.605469 C 131.128906 64.066406 131.765625 64.585938 132.351562 65.171875 C 132.9375 65.757812 133.460938 66.394531 133.917969 67.082031 C 134.378906 67.769531 134.769531 68.496094 135.085938 69.261719 C 135.402344 70.027344 135.640625 70.816406 135.800781 71.625 C 135.964844 72.4375 136.042969 73.257812 136.042969 74.085938 C 136.042969 74.914062 135.964844 75.734375 135.800781 76.542969 C 135.640625 77.355469 135.402344 78.144531 135.085938 78.910156 C 134.769531 79.671875 134.378906 80.398438 133.917969 81.089844 C 133.460938 81.777344 132.9375 82.414062 132.351562 82.996094 C 131.765625 83.582031 131.128906 84.105469 130.441406 84.566406 C 129.753906 85.023438 129.027344 85.414062 128.261719 85.730469 C 127.5 86.046875 126.710938 86.285156 125.898438 86.449219 C 125.085938 86.609375 124.265625 86.691406 123.441406 86.691406 C 122.613281 86.691406 121.792969 86.609375 120.980469 86.449219 C 120.167969 86.285156 119.382812 86.046875 118.617188 85.730469 C 117.851562 85.414062 117.125 85.023438 116.4375 84.566406 C 115.75 84.105469 115.113281 83.582031 114.527344 82.996094 C 113.941406 82.414062 113.417969 81.777344 112.960938 81.089844 C 112.5 80.398438 112.113281 79.671875 111.796875 78.910156 C 111.476562 78.144531 111.238281 77.355469 111.078125 76.542969 C 110.917969 75.734375 110.835938 74.914062 110.835938 74.085938 C 110.835938 73.257812 110.917969 72.4375 111.078125 71.625 C 111.238281 70.816406 111.476562 70.027344 111.796875 69.261719 C 112.113281 68.496094 112.5 67.769531 112.960938 67.082031 C 113.417969 66.394531 113.941406 65.757812 114.527344 65.171875 C 115.113281 64.585938 115.75 64.066406 116.4375 63.605469 C 117.125 63.144531 117.851562 62.757812 118.617188 62.441406 C 119.382812 62.125 120.167969 61.886719 120.980469 61.722656 C 121.792969 61.5625 122.613281 61.480469 123.441406 61.480469 C 124.265625 61.480469 125.085938 61.5625 125.898438 61.722656 C 126.710938 61.886719 127.5 62.125 128.261719 62.441406 Z M 128.261719 62.441406 " fill-opacity="1" fill-rule="nonzero"/><g clip-path="url(#d3424e85b6)"><path fill="#1e4064" d="M 234.859375 62.042969 L 190.113281 0.253906 L 160.699219 40.875 C 170.3125 48.753906 176.457031 60.71875 176.457031 74.085938 C 176.457031 95.730469 160.359375 113.683594 139.507812 116.605469 C 142.121094 122.542969 145.78125 128.066406 150.203125 132.726562 C 160.585938 143.667969 174.761719 149.695312 190.113281 149.695312 C 211.296875 149.695312 229.6875 138.433594 239.320312 119.570312 C 248.953125 100.703125 247.285156 79.199219 234.859375 62.042969 Z M 181.339844 142.148438 C 178.554688 142.148438 176.296875 139.894531 176.296875 137.109375 C 176.296875 134.324219 178.554688 132.066406 181.339844 132.066406 C 184.125 132.066406 186.382812 134.324219 186.382812 137.109375 C 186.382812 139.894531 184.125 142.148438 181.339844 142.148438 Z M 188.902344 121.984375 C 186.117188 121.984375 183.859375 119.726562 183.859375 116.941406 C 183.859375 114.15625 186.117188 111.898438 188.902344 111.898438 C 191.6875 111.898438 193.945312 114.15625 193.945312 116.941406 C 193.945312 119.726562 191.6875 121.984375 188.902344 121.984375 Z M 204.027344 137.109375 C 201.242188 137.109375 198.984375 134.851562 198.984375 132.066406 C 198.984375 129.28125 201.242188 127.023438 204.027344 127.023438 C 206.8125 127.023438 209.070312 129.28125 209.070312 132.066406 C 209.070312 134.851562 206.8125 137.109375 204.027344 137.109375 Z M 204.027344 137.109375 " fill-opacity="1" fill-rule="nonzero"/></g><g clip-path="url(#b8fb603709)"><path fill="#1e4064" d="M 132.367188 228.027344 C 154.3125 228.027344 172.164062 210.175781 172.164062 188.234375 C 172.164062 166.289062 154.3125 148.4375 132.367188 148.4375 C 110.425781 148.4375 92.570312 166.289062 92.570312 188.234375 C 92.570312 210.175781 110.425781 228.027344 132.367188 228.027344 Z M 101.691406 190.375 C 101.691406 188.710938 103.042969 187.359375 104.707031 187.359375 L 114.996094 187.359375 L 123.113281 171.851562 C 123.71875 170.695312 125.007812 170.066406 126.292969 170.28125 C 127.582031 170.503906 128.582031 171.53125 128.765625 172.824219 L 131.992188 195.402344 L 140.464844 183.664062 C 140.984375 182.941406 141.800781 182.484375 142.691406 182.421875 C 143.585938 182.375 144.453125 182.691406 145.070312 183.328125 L 152.742188 191.242188 L 160.03125 191.242188 C 161.691406 191.242188 163.042969 192.59375 163.042969 194.257812 C 163.042969 195.921875 161.691406 197.269531 160.03125 197.269531 L 151.464844 197.269531 C 150.648438 197.269531 149.871094 196.9375 149.304688 196.355469 L 143.246094 190.105469 L 132.507812 204.984375 C 131.929688 205.777344 131.015625 206.234375 130.0625 206.234375 C 129.820312 206.234375 129.582031 206.207031 129.34375 206.144531 C 128.148438 205.851562 127.253906 204.863281 127.082031 203.644531 L 124.121094 182.925781 L 119.488281 191.773438 C 118.96875 192.769531 117.9375 193.390625 116.816406 193.390625 L 104.707031 193.390625 C 103.042969 193.390625 101.691406 192.039062 101.691406 190.375 Z M 101.691406 190.375 " fill-opacity="1" fill-rule="nonzero"/></g><g clip-path="url(#61b7e50cca)"><path fill="#1e4064" d="M 77.09375 239.621094 L 98.117188 218.570312 C 90.941406 210.480469 86.542969 199.875 86.542969 188.234375 C 86.542969 162.96875 107.097656 142.414062 132.363281 142.414062 C 138.734375 142.414062 144.800781 143.726562 150.316406 146.082031 C 149.199219 138.789062 145.808594 132.007812 140.421875 126.621094 C 126.722656 112.929688 104.441406 112.929688 90.742188 126.621094 L 79.230469 138.175781 C 78.054688 139.359375 76.144531 139.359375 74.96875 138.1875 C 74.96875 138.183594 74.964844 138.171875 74.960938 138.171875 C 74.957031 138.167969 74.957031 138.167969 74.953125 138.164062 L 63.40625 126.617188 C 49.71875 112.925781 27.441406 112.925781 13.746094 126.617188 C 0.0546875 140.308594 0.0546875 162.585938 13.746094 176.277344 L 77.097656 239.625 Z M 77.09375 239.621094 " fill-opacity="1" fill-rule="nonzero"/></g><g clip-path="url(#e7b03720ab)"><path fill="#1e4064" d="M 201.050781 167.765625 C 197.746094 167.765625 195.066406 170.445312 195.066406 173.75 L 195.066406 201.160156 C 195.066406 204.585938 193.148438 207.398438 191.101562 209.320312 C 188.277344 211.976562 186.519531 215.738281 186.519531 219.914062 C 186.519531 227.9375 193.027344 234.445312 201.050781 234.445312 C 209.078125 234.445312 215.585938 227.9375 215.585938 219.914062 C 215.585938 215.738281 213.828125 211.976562 211.003906 209.320312 C 208.957031 207.398438 207.035156 204.585938 207.035156 201.160156 L 207.035156 173.75 C 207.035156 170.445312 204.355469 167.765625 201.050781 167.765625 Z M 189.9375 173.75 C 189.9375 167.613281 194.914062 162.636719 201.050781 162.636719 C 207.191406 162.636719 212.164062 167.613281 212.164062 173.75 L 212.164062 201.160156 C 212.164062 202.613281 213.003906 204.164062 214.515625 205.582031 C 218.328125 209.167969 220.714844 214.261719 220.714844 219.914062 C 220.714844 230.773438 211.910156 239.574219 201.050781 239.574219 C 190.191406 239.574219 181.390625 230.773438 181.390625 219.914062 C 181.390625 214.261719 183.777344 209.167969 187.589844 205.582031 C 189.101562 204.164062 189.9375 202.613281 189.9375 201.160156 Z M 189.9375 173.75 " fill-opacity="1" fill-rule="evenodd"/></g><path fill="#1e4064" d="M 201.050781 210.507812 C 195.859375 210.507812 191.648438 214.71875 191.648438 219.914062 C 191.648438 225.105469 195.859375 229.316406 201.050781 229.316406 C 206.246094 229.316406 210.457031 225.105469 210.457031 219.914062 C 210.457031 214.71875 206.246094 210.507812 201.050781 210.507812 Z M 201.050781 210.507812 " fill-opacity="1" fill-rule="evenodd"/><path fill="#1e4064" d="M 201.050781 179.734375 C 202.46875 179.734375 203.617188 180.882812 203.617188 182.300781 L 203.617188 213.074219 C 203.617188 214.492188 202.46875 215.636719 201.050781 215.636719 C 199.636719 215.636719 198.488281 214.492188 198.488281 213.074219 L 198.488281 182.300781 C 198.488281 180.882812 199.636719 179.734375 201.050781 179.734375 Z M 201.050781 179.734375 " fill-opacity="1" fill-rule="evenodd"/><path fill="#1e4064" d="M 220.714844 184.007812 C 220.714844 182.59375 221.863281 181.445312 223.277344 181.445312 L 230.117188 181.445312 C 233.421875 181.445312 236.101562 184.125 236.101562 187.429688 L 236.101562 201.105469 C 236.101562 204.410156 233.421875 207.089844 230.117188 207.089844 L 223.277344 207.089844 C 221.863281 207.089844 220.714844 205.941406 220.714844 204.527344 C 220.714844 203.109375 221.863281 201.960938 223.277344 201.960938 L 230.117188 201.960938 C 230.589844 201.960938 230.972656 201.578125 230.972656 201.105469 L 230.972656 196.699219 L 223.277344 196.699219 C 221.863281 196.699219 220.714844 195.550781 220.714844 194.136719 C 220.714844 192.71875 221.863281 191.570312 223.277344 191.570312 L 230.972656 191.570312 L 230.972656 187.429688 C 230.972656 186.957031 230.589844 186.574219 230.117188 186.574219 L 223.277344 186.574219 C 221.863281 186.574219 220.714844 185.425781 220.714844 184.007812 Z M 220.714844 184.007812 " fill-opacity="1" fill-rule="evenodd"/><path fill="#1e4064" d="M 240.375 181.445312 C 241.792969 181.445312 242.941406 182.59375 242.941406 184.007812 L 242.941406 191.703125 L 247.214844 191.703125 C 250.519531 191.703125 253.199219 194.382812 253.199219 197.6875 L 253.199219 201.105469 C 253.199219 204.410156 250.519531 207.089844 247.214844 207.089844 L 243.796875 207.089844 C 240.488281 207.089844 237.8125 204.410156 237.8125 201.105469 L 237.8125 184.007812 C 237.8125 182.59375 238.960938 181.445312 240.375 181.445312 Z M 242.941406 196.832031 L 242.941406 201.105469 C 242.941406 201.578125 243.324219 201.960938 243.796875 201.960938 L 247.214844 201.960938 C 247.6875 201.960938 248.070312 201.578125 248.070312 201.105469 L 248.070312 197.6875 C 248.070312 197.214844 247.6875 196.832031 247.214844 196.832031 Z M 242.941406 196.832031 " fill-opacity="1" fill-rule="evenodd"/><g clip-path="url(#1fed14e67a)"><path fill="#1e4064" d="M 252.34375 164.347656 C 249.039062 164.347656 246.359375 167.027344 246.359375 170.332031 C 246.359375 173.636719 249.039062 176.316406 252.34375 176.316406 C 255.648438 176.316406 258.328125 173.636719 258.328125 170.332031 C 258.328125 167.027344 255.648438 164.347656 252.34375 164.347656 Z M 252.34375 164.347656 " fill-opacity="1" fill-rule="evenodd"/></g></svg>