<svg xmlns="http://www.w3.org/2000/svg" xmlns:xlink="http://www.w3.org/1999/xlink" width="243" zoomAndPan="magnify" viewBox="0 0 182.25 275.999996" height="368" preserveAspectRatio="xMidYMid meet" version="1.0"><defs><g/><clipPath id="bfb2bec98d"><path d="M 103 118 L 173.285156 118 L 173.285156 238 L 103 238 Z M 103 118 " clip-rule="nonzero"/></clipPath><clipPath id="f97027c29f"><path d="M 22 80.558594 L 113 80.558594 L 113 275.433594 L 22 275.433594 Z M 22 80.558594 " clip-rule="nonzero"/></clipPath></defs><g clip-path="url(#bfb2bec98d)"><path fill="#1e4064" d="M 173.042969 195.511719 C 173.042969 218.585938 154.738281 237.296875 132.15625 237.296875 C 129.03125 237.296875 125.992188 236.9375 123.0625 236.257812 C 123.273438 234.300781 123.378906 232.320312 123.378906 230.320312 C 123.378906 213.78125 115.851562 198.164062 103.277344 187.726562 L 103.277344 162.691406 C 115.34375 140.699219 132.15625 118.519531 132.15625 118.519531 C 132.15625 118.519531 173.042969 172.433594 173.042969 195.511719 Z M 173.042969 195.511719 " fill-opacity="1" fill-rule="nonzero"/></g><g clip-path="url(#f97027c29f)"><path fill="#1e4064" d="M 67.601562 275.234375 C 67.226562 275.234375 66.851562 275.230469 66.476562 275.222656 C 42.585938 274.648438 23.210938 255.644531 22.355469 231.964844 C 21.789062 216.300781 29.425781 201.617188 42.4375 192.984375 L 42.421875 105.566406 C 42.421875 91.785156 53.710938 80.574219 67.589844 80.574219 C 81.46875 80.574219 92.757812 91.785156 92.757812 105.566406 L 92.757812 192.992188 C 105.222656 201.289062 112.855469 215.339844 112.855469 230.320312 C 112.855469 242.53125 108.003906 253.953125 99.191406 262.480469 C 90.6875 270.703125 79.46875 275.234375 67.601562 275.234375 Z M 67.589844 90.285156 C 59.066406 90.285156 52.132812 97.140625 52.132812 105.566406 L 52.144531 195.683594 C 52.144531 197.417969 51.222656 199.019531 49.71875 199.886719 C 38.355469 206.445312 31.589844 218.601562 32.058594 231.613281 C 32.726562 250.171875 47.945312 265.0625 66.707031 265.515625 C 67.003906 265.519531 67.300781 265.523438 67.601562 265.523438 C 76.9375 265.523438 85.757812 261.964844 92.4375 255.5 C 99.34375 248.820312 103.144531 239.878906 103.144531 230.320312 C 103.144531 217.847656 96.375 206.191406 85.476562 199.894531 C 83.972656 199.027344 83.046875 197.425781 83.046875 195.691406 L 83.046875 105.566406 C 83.046875 97.140625 76.113281 90.285156 67.589844 90.285156 Z M 67.589844 90.285156 " fill-opacity="1" fill-rule="nonzero"/></g><path fill="#1e4064" d="M 67.269531 256.574219 C 52.898438 256.226562 41.519531 245.128906 41.023438 231.296875 C 40.671875 221.597656 45.722656 212.53125 54.207031 207.640625 L 61.117188 203.652344 L 61.101562 105.566406 C 61.101562 102.078125 64.015625 99.238281 67.589844 99.238281 C 71.164062 99.238281 74.078125 102.078125 74.078125 105.566406 L 74.078125 203.660156 L 80.984375 207.648438 C 89.121094 212.34375 94.175781 221.035156 94.175781 230.320312 C 94.175781 237.4375 91.339844 244.097656 86.195312 249.074219 C 81.195312 253.90625 74.585938 256.574219 67.601562 256.574219 Z M 67.269531 256.574219 " fill-opacity="1" fill-rule="nonzero"/><path fill="#1e4064" d="M 34.277344 144.511719 L 4.863281 144.511719 C 2.183594 144.511719 0.0078125 142.335938 0.0078125 139.65625 C 0.0078125 136.976562 2.183594 134.800781 4.863281 134.800781 L 34.277344 134.800781 C 36.957031 134.800781 39.132812 136.976562 39.132812 139.65625 C 39.132812 142.335938 36.957031 144.511719 34.277344 144.511719 Z M 34.277344 144.511719 " fill-opacity="1" fill-rule="nonzero"/><path fill="#1e4064" d="M 34.277344 159.304688 L 19.570312 159.304688 C 16.890625 159.304688 14.714844 157.132812 14.714844 154.453125 C 14.714844 151.769531 16.890625 149.597656 19.570312 149.597656 L 34.277344 149.597656 C 36.957031 149.597656 39.132812 151.769531 39.132812 154.453125 C 39.132812 157.132812 36.957031 159.304688 34.277344 159.304688 Z M 34.277344 159.304688 " fill-opacity="1" fill-rule="nonzero"/><path fill="#1e4064" d="M 34.277344 129.714844 L 19.570312 129.714844 C 16.890625 129.714844 14.714844 127.542969 14.714844 124.859375 C 14.714844 122.179688 16.890625 120.003906 19.570312 120.003906 L 34.277344 120.003906 C 36.957031 120.003906 39.132812 122.179688 39.132812 124.859375 C 39.132812 127.542969 36.957031 129.714844 34.277344 129.714844 Z M 34.277344 129.714844 " fill-opacity="1" fill-rule="nonzero"/><g fill="#1e4064" fill-opacity="1"><g transform="translate(102.404034, 136.154555)"><g><path d="M 4.75 -58.78125 C 4.75 -61.957031 5.539062 -64.921875 7.125 -67.671875 C 8.71875 -70.429688 10.890625 -72.617188 13.640625 -74.234375 C 16.398438 -75.859375 19.398438 -76.671875 22.640625 -76.671875 C 25.816406 -76.671875 28.789062 -75.878906 31.5625 -74.296875 C 34.34375 -72.710938 36.53125 -70.523438 38.125 -67.734375 C 39.726562 -64.941406 40.53125 -61.957031 40.53125 -58.78125 C 40.53125 -55.582031 39.726562 -52.59375 38.125 -49.8125 C 36.53125 -47.039062 34.351562 -44.878906 31.59375 -43.328125 C 28.832031 -41.773438 25.847656 -41 22.640625 -41 C 17.648438 -41 13.421875 -42.710938 9.953125 -46.140625 C 6.484375 -49.578125 4.75 -53.789062 4.75 -58.78125 Z M 14.625 -58.78125 C 14.625 -56.582031 15.390625 -54.707031 16.921875 -53.15625 C 18.460938 -51.601562 20.367188 -50.828125 22.640625 -50.828125 C 24.921875 -50.828125 26.835938 -51.617188 28.390625 -53.203125 C 29.941406 -54.785156 30.71875 -56.644531 30.71875 -58.78125 C 30.71875 -60.957031 29.929688 -62.851562 28.359375 -64.46875 C 26.785156 -66.09375 24.878906 -66.90625 22.640625 -66.90625 C 20.441406 -66.90625 18.554688 -66.113281 16.984375 -64.53125 C 15.410156 -62.945312 14.625 -61.03125 14.625 -58.78125 Z M 14.625 -58.78125 "/></g></g></g><g fill="#deffda" fill-opacity="1"><g transform="translate(110.525237, 209.755805)"><g><path d="M 8.625 -28.0625 C 8.625 -25.738281 8.828125 -24.003906 9.234375 -22.859375 C 9.648438 -21.722656 10.316406 -21.15625 11.234375 -21.15625 C 12.984375 -21.15625 13.859375 -23.457031 13.859375 -28.0625 C 13.859375 -32.625 12.984375 -34.90625 11.234375 -34.90625 C 10.316406 -34.90625 9.648438 -34.34375 9.234375 -33.21875 C 8.828125 -32.101562 8.625 -30.382812 8.625 -28.0625 Z M 20.765625 -28.125 C 20.765625 -23.914062 19.953125 -20.753906 18.328125 -18.640625 C 16.703125 -16.535156 14.320312 -15.484375 11.1875 -15.484375 C 8.164062 -15.484375 5.832031 -16.566406 4.1875 -18.734375 C 2.539062 -20.898438 1.71875 -24.03125 1.71875 -28.125 C 1.71875 -36.46875 4.875 -40.640625 11.1875 -40.640625 C 14.269531 -40.640625 16.632812 -39.554688 18.28125 -37.390625 C 19.9375 -35.222656 20.765625 -32.132812 20.765625 -28.125 Z M 39.625 -40.0625 L 17.40625 0 L 10.828125 0 L 33.046875 -40.0625 Z M 36.6875 -12.0625 C 36.6875 -9.738281 36.890625 -8.003906 37.296875 -6.859375 C 37.710938 -5.722656 38.378906 -5.15625 39.296875 -5.15625 C 41.046875 -5.15625 41.921875 -7.457031 41.921875 -12.0625 C 41.921875 -16.625 41.046875 -18.90625 39.296875 -18.90625 C 38.378906 -18.90625 37.710938 -18.34375 37.296875 -17.21875 C 36.890625 -16.09375 36.6875 -14.375 36.6875 -12.0625 Z M 48.828125 -12.109375 C 48.828125 -7.929688 48.015625 -4.785156 46.390625 -2.671875 C 44.765625 -0.554688 42.382812 0.5 39.25 0.5 C 36.226562 0.5 33.894531 -0.582031 32.25 -2.75 C 30.601562 -4.914062 29.78125 -8.035156 29.78125 -12.109375 C 29.78125 -20.460938 32.9375 -24.640625 39.25 -24.640625 C 42.332031 -24.640625 44.695312 -23.554688 46.34375 -21.390625 C 48 -19.222656 48.828125 -16.128906 48.828125 -12.109375 Z M 48.828125 -12.109375 "/></g></g></g></svg>